<svg id="Layer_1" data-name="Layer 1" xmlns="http://www.w3.org/2000/svg" viewBox="0 0 108 108"><defs><style>.cls-1{fill:#231f20;}</style></defs><title>urban design</title><path class="cls-1" d="M37.36,108a2.15,2.15,0,0,1-1.31-.44L.85,80.78A2.17,2.17,0,0,1,0,79.06V54.46H0A2.17,2.17,0,0,1,.54,53h0a1.37,1.37,0,0,1,.17-.17l.16-.13L69.33.44A2.16,2.16,0,0,1,72,.44l35.18,26.87.18.14.14.14A2.16,2.16,0,0,1,108,29h0V54.46a2.16,2.16,0,0,1-3.47,1.72L89.19,44.47,39.52,82.41v23.43A2.15,2.15,0,0,1,37.36,108Zm-33-30L35.2,101.48V82.41L4.32,58.83Zm1.4-23.53L37.36,78.62,87.66,40.2a2.3,2.3,0,0,1,.44-.33L102.28,29,70.64,4.88Zm87-12.71,10.93,8.34V33.4Z"/></svg>