<?xml version="1.0" encoding="utf-8"?>
<!-- Generator: Adobe Illustrator 23.0.4, SVG Export Plug-In . SVG Version: 6.00 Build 0)  -->
<svg version="1.1" id="Layer_1" xmlns="http://www.w3.org/2000/svg" xmlns:xlink="http://www.w3.org/1999/xlink" x="0px" y="0px"
	 viewBox="0 0 108 108" style="enable-background:new 0 0 108 108;" xml:space="preserve">
<style type="text/css">
	.st0{fill:#231F20;}
</style>
<title>living room</title>
<g>
	<path class="st0" d="M84.3,65.5H23.7c-1.2,0-2.2-1-2.2-2.2V42h-8.6c-1.2,0-2.2-1-2.2-2.1c0,0,0,0,0,0V8.7c0-1.2,1-2.2,2.2-2.2h82.1
		c1.2,0,2.2,1,2.2,2.2c0,0,0,0,0,0v31.2c0,1.2-1,2.2-2.1,2.2c0,0,0,0,0,0h-8.6v21.4C86.5,64.6,85.5,65.5,84.3,65.5z M25.9,61.2h56.3
		V39.8c0-1.2,1-2.2,2.2-2.2l0,0h8.6V10.8H15.1v26.8h8.6c1.2,0,2.2,1,2.2,2.2V61.2z"/>
	<path class="st0" d="M105.8,87.1H2.2c-1.2,0-2.2-1-2.2-2.2c0,0,0,0,0,0V39.8c0-1.2,1-2.2,2.2-2.2h21.5c1.2,0,2.2,1,2.2,2.2v21.4
		h56.3V39.8c0-1.2,1-2.2,2.2-2.2l0,0h21.5c1.2,0,2.2,1,2.2,2.2v45.1C108,86.1,107,87.1,105.8,87.1L105.8,87.1z M4.3,82.8h99.4V42
		H86.5v21.4c0,1.2-1,2.2-2.2,2.2H23.7c-1.2,0-2.2-1-2.2-2.2V42H4.3V82.8z"/>
	<path class="st0" d="M12.9,101.5c-1.2,0-2.2-1-2.2-2.2l0,0V84.9c0-1.2,1-2.2,2.2-2.2c1.2,0,2.2,1,2.2,2.2v14.4
		C15.1,100.5,14.1,101.5,12.9,101.5C12.9,101.5,12.9,101.5,12.9,101.5z"/>
	<path class="st0" d="M95.1,101.5c-1.2,0-2.2-1-2.2-2.2v0V84.9c0-1.2,1-2.2,2.2-2.2c1.2,0,2.2,1,2.2,2.2v14.4
		C97.2,100.5,96.3,101.5,95.1,101.5z"/>
	<path class="st0" d="M84.3,65.5H23.7c-1.2,0-2.2-1-2.2-2.2V52c0-1.2,1-2.2,2.2-2.2h60.6c1.2,0,2.2,1,2.2,2.2v0v11.4
		C86.5,64.6,85.5,65.5,84.3,65.5z M25.9,61.2h56.3v-7.1H25.9V61.2z"/>
</g>
</svg>
