<?xml version="1.0" encoding="utf-8"?>
<!-- Generator: Adobe Illustrator 23.0.4, SVG Export Plug-In . SVG Version: 6.00 Build 0)  -->
<svg version="1.1" id="Layer_1" xmlns="http://www.w3.org/2000/svg" xmlns:xlink="http://www.w3.org/1999/xlink" x="0px" y="0px"
	 viewBox="0 0 144 51.2" style="enable-background:new 0 0 144 51.2;" xml:space="preserve">
<style type="text/css">
	.st0{fill:#231F20;}
</style>
<title>logo</title>
<g>
	<path class="st0" d="M30.5,17.2c5,0,9.1,4.1,9.1,9.1c0,0.2,0,0.5,0,0.7l-0.2,2.3l2.1,0.9c3.4,1.5,5.6,4.8,5.6,8.5
		c0,5.1-4.1,9.2-9.2,9.2H9.3c-3.4,0-6.1-2.8-6.1-6.1c0-2.5,1.6-4.9,4-5.7l3-1.1l-1.2-3c-0.3-0.9-0.5-1.7-0.5-2.6
		c0-4,3.3-7.2,7.2-7.2c1,0,2.1,0.2,3,0.7l2.5,1.2l1.5-2.4C24.4,18.8,27.3,17.2,30.5,17.2 M30.5,14c-4.4,0-8.2,2.3-10.4,5.8
		c-1.3-0.6-2.8-1-4.4-1c-5.7,0-10.4,4.7-10.4,10.4c0,1.3,0.3,2.6,0.7,3.8c-3.5,1.3-6,4.7-6,8.7C0,46.8,4.2,51,9.3,51h28.5
		c6.8,0,12.4-5.5,12.4-12.4c0-5.1-3.1-9.5-7.6-11.4c0-0.3,0-0.6,0-1C42.7,19.5,37.2,14,30.5,14L30.5,14z"/>
	<g>
		<g>
			<path class="st0" d="M55.4,41.5c0-1.1,0.2-2.3,0.6-3.4c0.4-1.1,1-2.1,1.7-3c0.8-0.9,1.7-1.6,2.8-2.2c1.1-0.6,2.3-0.8,3.7-0.8
				c1.6,0,3.1,0.4,4.2,1.1s2,1.8,2.6,3l-1.8,1.2c-0.3-0.6-0.6-1.1-1-1.5c-0.4-0.4-0.8-0.7-1.3-1c-0.5-0.2-0.9-0.4-1.4-0.5
				c-0.5-0.1-1-0.2-1.4-0.2c-1,0-1.9,0.2-2.7,0.7c-0.8,0.4-1.4,1-2,1.7c-0.5,0.7-0.9,1.5-1.2,2.4c-0.3,0.9-0.4,1.8-0.4,2.7
				c0,1,0.2,1.9,0.5,2.8c0.3,0.9,0.8,1.7,1.3,2.4c0.6,0.7,1.2,1.2,2,1.7c0.8,0.4,1.6,0.6,2.5,0.6c0.5,0,1-0.1,1.5-0.2
				c0.5-0.1,1-0.3,1.5-0.6c0.5-0.3,0.9-0.6,1.3-1c0.4-0.4,0.7-0.9,1-1.5l1.9,1.1c-0.3,0.7-0.7,1.3-1.2,1.9c-0.5,0.5-1.1,1-1.8,1.4
				c-0.7,0.4-1.4,0.7-2.1,0.9c-0.7,0.2-1.5,0.3-2.2,0.3c-1.3,0-2.4-0.3-3.5-0.9c-1.1-0.6-2-1.3-2.7-2.2c-0.8-0.9-1.4-2-1.8-3.1
				C55.6,43.9,55.4,42.7,55.4,41.5z"/>
			<path class="st0" d="M74.3,51.1v-19h2.3V49h10.3v2.1H74.3z"/>
			<path class="st0" d="M96.9,51.2c-1.3,0-2.5-0.3-3.5-0.8c-1.1-0.5-2-1.3-2.7-2.2c-0.8-0.9-1.3-1.9-1.8-3.1
				c-0.4-1.2-0.6-2.3-0.6-3.6c0-1.3,0.2-2.5,0.7-3.6c0.4-1.2,1-2.2,1.8-3.1c0.8-0.9,1.7-1.6,2.8-2.1c1.1-0.5,2.2-0.8,3.5-0.8
				c1.3,0,2.5,0.3,3.5,0.8c1.1,0.6,2,1.3,2.7,2.2c0.8,0.9,1.3,1.9,1.8,3.1c0.4,1.1,0.6,2.3,0.6,3.5c0,1.3-0.2,2.5-0.7,3.6
				c-0.4,1.2-1,2.2-1.8,3.1c-0.8,0.9-1.7,1.6-2.7,2.1C99.3,51,98.2,51.2,96.9,51.2z M90.6,41.6c0,1,0.2,1.9,0.5,2.8
				c0.3,0.9,0.7,1.7,1.3,2.4c0.6,0.7,1.2,1.2,2,1.7c0.8,0.4,1.6,0.6,2.6,0.6c1,0,1.9-0.2,2.6-0.7c0.8-0.4,1.4-1,2-1.7
				c0.5-0.7,1-1.5,1.2-2.4c0.3-0.9,0.4-1.8,0.4-2.7c0-1-0.2-1.9-0.5-2.8c-0.3-0.9-0.7-1.7-1.3-2.4c-0.6-0.7-1.2-1.2-2-1.6
				c-0.8-0.4-1.6-0.6-2.6-0.6c-1,0-1.9,0.2-2.6,0.6c-0.8,0.4-1.4,1-2,1.7c-0.5,0.7-1,1.5-1.3,2.4C90.8,39.8,90.6,40.7,90.6,41.6z"/>
			<path class="st0" d="M116.4,49.1c1.1,0,2-0.2,2.7-0.6c0.7-0.4,1.3-1,1.7-1.7c0.4-0.7,0.7-1.5,0.9-2.4c0.2-0.9,0.3-1.8,0.3-2.7
				v-9.6h2.3v9.6c0,1.3-0.1,2.5-0.4,3.6c-0.3,1.1-0.7,2.2-1.4,3c-0.6,0.9-1.4,1.6-2.4,2.1c-1,0.5-2.2,0.8-3.6,0.8
				c-1.5,0-2.7-0.3-3.7-0.8c-1-0.5-1.8-1.2-2.4-2.1c-0.6-0.9-1.1-1.9-1.3-3c-0.3-1.1-0.4-2.3-0.4-3.5v-9.6h2.3v9.6
				c0,0.9,0.1,1.9,0.3,2.7c0.2,0.9,0.5,1.7,0.9,2.3c0.4,0.7,1,1.2,1.7,1.6C114.5,48.8,115.4,49.1,116.4,49.1z"/>
			<path class="st0" d="M128.4,51.1v-19h6.4c1.5,0,2.8,0.2,3.9,0.7c1.1,0.5,2,1.2,2.8,2c0.7,0.9,1.3,1.9,1.7,3
				c0.4,1.1,0.6,2.4,0.6,3.7c0,1.4-0.2,2.7-0.6,3.9c-0.4,1.2-1,2.2-1.8,3c-0.8,0.8-1.7,1.5-2.8,1.9c-1.1,0.5-2.3,0.7-3.7,0.7H128.4z
				 M141.3,41.6c0-1.1-0.1-2.1-0.4-3c-0.3-0.9-0.7-1.7-1.3-2.3c-0.6-0.6-1.2-1.1-2.1-1.5s-1.7-0.5-2.8-0.5h-4V49h4
				c1.1,0,2-0.2,2.8-0.6c0.8-0.4,1.5-0.9,2-1.6c0.5-0.7,1-1.4,1.2-2.3C141.2,43.6,141.3,42.6,141.3,41.6z"/>
		</g>
		<g>
			<path class="st0" d="M55.4,20.9c0-0.9,0.2-1.7,0.5-2.5c0.3-0.8,0.8-1.6,1.4-2.2c0.6-0.7,1.4-1.2,2.2-1.6c0.9-0.4,1.9-0.6,3-0.6
				c1.3,0,2.5,0.3,3.5,0.8c1,0.6,1.7,1.3,2.2,2.2l-2.9,2.1c-0.1-0.3-0.3-0.6-0.5-0.8c-0.2-0.2-0.5-0.4-0.7-0.5
				c-0.3-0.1-0.5-0.2-0.8-0.3c-0.3-0.1-0.6-0.1-0.8-0.1c-0.5,0-1,0.1-1.4,0.3c-0.4,0.2-0.7,0.5-1,0.8c-0.3,0.3-0.4,0.7-0.6,1.2
				c-0.1,0.4-0.2,0.9-0.2,1.3c0,0.5,0.1,0.9,0.2,1.4c0.1,0.4,0.4,0.8,0.6,1.2c0.3,0.3,0.6,0.6,1,0.8c0.4,0.2,0.8,0.3,1.3,0.3
				c0.3,0,0.5,0,0.8-0.1c0.3-0.1,0.5-0.2,0.8-0.3c0.3-0.1,0.5-0.3,0.7-0.5c0.2-0.2,0.4-0.5,0.5-0.8l3.1,1.9c-0.2,0.5-0.5,1-0.9,1.4
				c-0.4,0.4-0.9,0.7-1.4,1c-0.5,0.3-1.1,0.5-1.7,0.6c-0.6,0.1-1.2,0.2-1.8,0.2c-1,0-2-0.2-2.8-0.6c-0.9-0.4-1.6-1-2.2-1.6
				c-0.6-0.7-1.1-1.5-1.4-2.3C55.6,22.6,55.4,21.8,55.4,20.9z"/>
			<path class="st0" d="M75.8,24.7c0.4,0,0.8-0.1,1.1-0.3c0.3-0.2,0.6-0.5,0.8-0.8c0.2-0.3,0.3-0.7,0.4-1.1c0.1-0.4,0.1-0.9,0.1-1.3
				V14H82v7.2c0,1-0.1,1.9-0.4,2.7c-0.2,0.8-0.6,1.6-1.2,2.2c-0.5,0.6-1.2,1.1-2,1.5c-0.8,0.4-1.7,0.5-2.8,0.5
				c-1.1,0-2.1-0.2-2.8-0.6c-0.8-0.4-1.4-0.9-1.9-1.5c-0.5-0.6-0.9-1.4-1.1-2.2c-0.2-0.8-0.4-1.7-0.4-2.6V14h3.8v7.2
				c0,0.5,0,0.9,0.1,1.3c0.1,0.4,0.2,0.8,0.4,1.1c0.2,0.3,0.4,0.6,0.8,0.8C74.9,24.6,75.3,24.7,75.8,24.7z"/>
			<path class="st0" d="M84.2,28V14H88v10.6h6.3V28H84.2z"/>
			<path class="st0" d="M104.6,17.4h-4V28h-3.8V17.4h-4V14h11.8V17.4z"/>
			<path class="st0" d="M112.1,24.7c0.4,0,0.8-0.1,1.1-0.3c0.3-0.2,0.6-0.5,0.8-0.8c0.2-0.3,0.3-0.7,0.4-1.1
				c0.1-0.4,0.1-0.9,0.1-1.3V14h3.8v7.2c0,1-0.1,1.9-0.4,2.7c-0.2,0.8-0.6,1.6-1.2,2.2c-0.5,0.6-1.2,1.1-2,1.5
				c-0.8,0.4-1.7,0.5-2.8,0.5c-1.1,0-2.1-0.2-2.8-0.6c-0.8-0.4-1.4-0.9-1.9-1.5c-0.5-0.6-0.9-1.4-1.1-2.2c-0.2-0.8-0.4-1.7-0.4-2.6
				V14h3.8v7.2c0,0.5,0,0.9,0.1,1.3c0.1,0.4,0.2,0.8,0.4,1.1c0.2,0.3,0.4,0.6,0.8,0.8C111.3,24.6,111.7,24.7,112.1,24.7z"/>
			<path class="st0" d="M120.6,28V14h6.4c0.7,0,1.3,0.1,1.9,0.4c0.6,0.3,1.1,0.6,1.5,1.1c0.4,0.5,0.7,1,1,1.6
				c0.2,0.6,0.4,1.2,0.4,1.8c0,0.8-0.2,1.6-0.5,2.3c-0.4,0.7-0.8,1.3-1.5,1.7l2.9,5.1h-4.3l-2.4-4.3h-1.4V28H120.6z M124.4,20.3h2.4
				c0.2,0,0.5-0.1,0.7-0.4c0.2-0.3,0.3-0.6,0.3-1.1c0-0.5-0.1-0.9-0.4-1.1c-0.2-0.3-0.5-0.4-0.7-0.4h-2.3V20.3z"/>
			<path class="st0" d="M143.7,24.6V28h-9.9V14h9.7v3.3h-5.9v2h5.1v3.1h-5.1v2.2H143.7z"/>
		</g>
	</g>
</g>
</svg>
