<svg id="Layer_1" data-name="Layer 1" xmlns="http://www.w3.org/2000/svg" viewBox="0 0 108 108"><defs><style>.cls-1{fill:#231f20;}</style></defs><title>living room</title><path class="cls-1" d="M84.31,59H23.69a2.16,2.16,0,0,1-2.16-2.16V35.48h-8.6a2.15,2.15,0,0,1-2.16-2.16V2.16A2.16,2.16,0,0,1,12.93,0H95.07a2.16,2.16,0,0,1,2.16,2.16V33.32a2.15,2.15,0,0,1-2.16,2.16h-8.6V56.85A2.16,2.16,0,0,1,84.31,59ZM25.85,54.69h56.3V33.32a2.16,2.16,0,0,1,2.16-2.16h8.6V4.32H15.09V31.16h8.6a2.16,2.16,0,0,1,2.16,2.16Z"/><path class="cls-1" d="M105.84,80.54H2.16A2.16,2.16,0,0,1,0,78.38V33.32a2.16,2.16,0,0,1,2.16-2.16H23.69a2.16,2.16,0,0,1,2.16,2.16V54.69h56.3V33.32a2.16,2.16,0,0,1,2.16-2.16h21.53A2.16,2.16,0,0,1,108,33.32V78.38A2.16,2.16,0,0,1,105.84,80.54ZM4.32,76.22h99.36V35.48H86.47V56.85A2.16,2.16,0,0,1,84.31,59H23.69a2.16,2.16,0,0,1-2.16-2.16V35.48H4.32Z"/><path class="cls-1" d="M12.93,94.94a2.16,2.16,0,0,1-2.16-2.16V78.38a2.16,2.16,0,0,1,4.32,0v14.4A2.16,2.16,0,0,1,12.93,94.94Z"/><path class="cls-1" d="M95.07,94.94a2.16,2.16,0,0,1-2.16-2.16V78.38a2.16,2.16,0,0,1,4.32,0v14.4A2.16,2.16,0,0,1,95.07,94.94Z"/><path class="cls-1" d="M84.31,59H23.69a2.16,2.16,0,0,1-2.16-2.16V45.43a2.16,2.16,0,0,1,2.16-2.16H84.31a2.16,2.16,0,0,1,2.16,2.16V56.85A2.16,2.16,0,0,1,84.31,59ZM25.85,54.69h56.3v-7.1H25.85Z"/></svg>