<?xml version="1.0" encoding="iso-8859-1"?>
<!-- Generator: Adobe Illustrator 21.1.0, SVG Export Plug-In . SVG Version: 6.00 Build 0)  -->
<svg version="1.1" id="Layer_1" xmlns="http://www.w3.org/2000/svg" xmlns:xlink="http://www.w3.org/1999/xlink" x="0px" y="0px"
	 viewBox="0 0 92.164 32.682" style="enable-background:new 0 0 92.164 32.682;" xml:space="preserve">
<g>
	<g>
		<g>
			<path d="M45.357,20.613v12.069h-1.524v-5.491h-6.621v5.491h-1.524V20.613h1.524v5.219h6.621v-5.219H45.357z"/>
			<path d="M53.113,32.768c-0.847,0-1.617-0.173-2.312-0.519s-1.29-0.805-1.787-1.377c-0.496-0.572-0.88-1.227-1.151-1.963
				c-0.271-0.737-0.406-1.49-0.406-2.262c0-0.804,0.144-1.575,0.432-2.312s0.687-1.389,1.194-1.955s1.109-1.017,1.804-1.352
				c0.694-0.334,1.447-0.501,2.261-0.501c0.847,0,1.614,0.178,2.303,0.535c0.688,0.356,1.281,0.824,1.778,1.402
				c0.496,0.578,0.88,1.232,1.151,1.964c0.271,0.73,0.406,1.476,0.406,2.235c0,0.805-0.144,1.575-0.432,2.312
				s-0.684,1.386-1.186,1.947c-0.503,0.561-1.101,1.009-1.795,1.343S53.926,32.768,53.113,32.768z M48.998,26.647
				c0,0.612,0.099,1.205,0.297,1.777c0.197,0.572,0.477,1.079,0.838,1.521c0.361,0.441,0.796,0.793,1.304,1.054
				s1.072,0.391,1.693,0.391c0.644,0,1.22-0.139,1.728-0.416s0.939-0.641,1.296-1.088c0.355-0.448,0.626-0.955,0.812-1.521
				c0.187-0.567,0.279-1.14,0.279-1.718c0-0.611-0.099-1.204-0.296-1.776c-0.198-0.572-0.48-1.076-0.847-1.513
				s-0.802-0.785-1.305-1.046c-0.502-0.26-1.059-0.391-1.668-0.391c-0.644,0-1.219,0.136-1.728,0.408
				c-0.508,0.271-0.939,0.629-1.295,1.07c-0.355,0.442-0.63,0.947-0.821,1.514C49.094,25.48,48.998,26.059,48.998,26.647z"/>
			<path d="M65.848,31.391c0.699,0,1.281-0.136,1.744-0.408c0.463-0.271,0.832-0.626,1.109-1.062
				c0.276-0.436,0.471-0.935,0.584-1.495c0.112-0.562,0.169-1.131,0.169-1.709v-6.103h1.524v6.103c0,0.816-0.093,1.59-0.279,2.32
				c-0.187,0.731-0.482,1.375-0.889,1.93c-0.407,0.556-0.935,0.994-1.584,1.317s-1.437,0.484-2.362,0.484
				c-0.96,0-1.767-0.17-2.422-0.51c-0.654-0.34-1.183-0.79-1.583-1.352c-0.401-0.561-0.688-1.207-0.863-1.938
				c-0.176-0.731-0.263-1.482-0.263-2.253v-6.103h1.523v6.103c0,0.601,0.06,1.182,0.179,1.742c0.118,0.562,0.315,1.058,0.592,1.488
				c0.277,0.431,0.644,0.779,1.102,1.045C64.586,31.258,65.158,31.391,65.848,31.391z"/>
			<path d="M80.75,23.146c-0.136-0.158-0.316-0.312-0.542-0.459c-0.226-0.146-0.48-0.28-0.762-0.399s-0.591-0.215-0.923-0.289
				c-0.334-0.073-0.681-0.11-1.042-0.11c-0.938,0-1.623,0.176-2.058,0.527s-0.651,0.833-0.651,1.444
				c0,0.329,0.062,0.602,0.186,0.816c0.124,0.216,0.319,0.399,0.585,0.553c0.265,0.153,0.595,0.286,0.99,0.399
				s0.863,0.232,1.405,0.356c0.621,0.137,1.183,0.292,1.686,0.468c0.502,0.176,0.931,0.395,1.287,0.654
				c0.355,0.262,0.626,0.578,0.812,0.952s0.279,0.833,0.279,1.377c0,0.578-0.113,1.08-0.339,1.505s-0.533,0.776-0.923,1.054
				s-0.85,0.482-1.38,0.612c-0.531,0.13-1.106,0.195-1.728,0.195c-0.926,0-1.804-0.145-2.633-0.434
				c-0.83-0.289-1.584-0.711-2.261-1.267l0.728-1.292c0.181,0.193,0.415,0.386,0.703,0.578c0.288,0.193,0.615,0.365,0.982,0.519
				c0.366,0.153,0.762,0.278,1.186,0.374c0.423,0.097,0.866,0.145,1.329,0.145c0.857,0,1.523-0.153,1.998-0.459
				s0.711-0.765,0.711-1.377c0-0.34-0.076-0.626-0.229-0.858s-0.375-0.434-0.669-0.604c-0.293-0.17-0.657-0.32-1.092-0.45
				c-0.435-0.131-0.929-0.264-1.482-0.399c-0.609-0.147-1.146-0.307-1.608-0.477s-0.85-0.374-1.16-0.612
				c-0.311-0.237-0.545-0.526-0.702-0.866c-0.158-0.341-0.237-0.748-0.237-1.225c0-0.578,0.107-1.088,0.321-1.53
				c0.215-0.441,0.514-0.815,0.897-1.121c0.384-0.307,0.841-0.536,1.372-0.688c0.53-0.153,1.106-0.229,1.728-0.229
				c0.812,0,1.546,0.124,2.201,0.374c0.654,0.249,1.236,0.583,1.744,1.003L80.75,23.146z"/>
			<path d="M92.164,31.323v1.359h-8.163V20.613h8.01v1.359h-6.485v3.91h5.639v1.275h-5.639v4.165L92.164,31.323L92.164,31.323z"/>
		</g>
		<g>
			<path d="M35.756,13.465c0-0.541,0.102-1.074,0.306-1.6c0.203-0.525,0.5-0.996,0.89-1.412c0.391-0.417,0.863-0.755,1.42-1.013
				c0.556-0.259,1.191-0.388,1.905-0.388c0.854,0,1.596,0.177,2.223,0.531c0.626,0.354,1.094,0.823,1.4,1.406l-1.855,1.325
				c-0.083-0.217-0.192-0.396-0.33-0.538c-0.137-0.142-0.288-0.254-0.454-0.337s-0.338-0.142-0.517-0.175s-0.351-0.051-0.517-0.051
				c-0.349,0-0.649,0.069-0.903,0.207c-0.253,0.137-0.46,0.316-0.622,0.537s-0.282,0.471-0.361,0.75s-0.118,0.557-0.118,0.831
				c0,0.309,0.046,0.604,0.137,0.888c0.092,0.283,0.225,0.533,0.398,0.75c0.175,0.217,0.388,0.39,0.642,0.519
				c0.253,0.13,0.537,0.194,0.853,0.194c0.166,0,0.337-0.02,0.511-0.057c0.175-0.037,0.343-0.1,0.504-0.188
				c0.162-0.088,0.308-0.2,0.437-0.338c0.128-0.137,0.23-0.306,0.305-0.506l1.979,1.187c-0.133,0.325-0.334,0.617-0.604,0.875
				c-0.27,0.259-0.577,0.475-0.922,0.65c-0.344,0.175-0.714,0.308-1.107,0.399c-0.395,0.092-0.778,0.138-1.152,0.138
				c-0.655,0-1.256-0.131-1.799-0.394c-0.544-0.263-1.013-0.61-1.407-1.044s-0.699-0.925-0.915-1.475
				C35.864,14.59,35.756,14.032,35.756,13.465z"/>
			<path d="M48.706,15.891c0.282,0,0.522-0.062,0.722-0.188s0.361-0.29,0.486-0.494c0.124-0.204,0.215-0.439,0.273-0.706
				c0.058-0.267,0.087-0.546,0.087-0.838V9.103h2.429v4.562c0,0.617-0.079,1.194-0.237,1.731c-0.157,0.537-0.402,1.002-0.734,1.394
				s-0.749,0.7-1.251,0.925c-0.503,0.226-1.094,0.338-1.774,0.338c-0.706,0-1.31-0.119-1.812-0.356
				c-0.503-0.237-0.916-0.556-1.239-0.956c-0.324-0.4-0.561-0.864-0.71-1.394c-0.149-0.529-0.224-1.09-0.224-1.682V9.103h2.428
				v4.562c0,0.292,0.029,0.573,0.087,0.844c0.059,0.271,0.149,0.509,0.274,0.713c0.124,0.204,0.284,0.366,0.479,0.487
				C48.185,15.83,48.424,15.891,48.706,15.891z"/>
			<path d="M54.098,17.978V9.103h2.428v6.75h4.01v2.125H54.098z"/>
			<path d="M67.085,11.228h-2.54v6.75h-2.429v-6.75h-2.553V9.103h7.521L67.085,11.228L67.085,11.228z"/>
			<path d="M71.829,15.891c0.282,0,0.522-0.062,0.722-0.188s0.361-0.29,0.486-0.494c0.124-0.204,0.215-0.439,0.273-0.706
				c0.058-0.267,0.087-0.546,0.087-0.838V9.103h2.429v4.562c0,0.617-0.079,1.194-0.237,1.731c-0.157,0.537-0.402,1.002-0.734,1.394
				s-0.749,0.7-1.251,0.925c-0.503,0.226-1.094,0.338-1.774,0.338c-0.706,0-1.31-0.119-1.812-0.356
				c-0.503-0.237-0.916-0.556-1.239-0.956c-0.324-0.4-0.561-0.864-0.71-1.394c-0.149-0.529-0.224-1.09-0.224-1.682V9.103h2.428
				v4.562c0,0.292,0.029,0.573,0.087,0.844c0.059,0.271,0.149,0.509,0.274,0.713c0.124,0.204,0.284,0.366,0.479,0.487
				C71.308,15.83,71.547,15.891,71.829,15.891z"/>
			<path d="M77.221,17.978V9.103h4.059c0.432,0,0.83,0.09,1.195,0.269c0.365,0.18,0.679,0.413,0.94,0.7
				c0.262,0.288,0.467,0.617,0.616,0.987c0.149,0.371,0.225,0.744,0.225,1.119c0,0.517-0.112,0.998-0.337,1.443
				c-0.224,0.446-0.535,0.811-0.934,1.094l1.868,3.263h-2.739l-1.557-2.725h-0.909v2.725H77.221z M79.649,13.128h1.531
				c0.149,0,0.288-0.083,0.417-0.25s0.193-0.4,0.193-0.7c0-0.309-0.074-0.544-0.224-0.706c-0.15-0.163-0.3-0.244-0.449-0.244h-1.469
				L79.649,13.128L79.649,13.128z"/>
			<path d="M91.926,15.853v2.125h-6.301V9.103h6.188v2.125h-3.761v1.25h3.213v1.976h-3.213v1.399H91.926z"/>
		</g>
	</g>
	<path d="M32.44,32.687H0V8.475L16.221,0l16.22,8.475v24.212H32.44z M1.999,30.687h28.44V9.686l-14.22-7.43L1.998,9.686
		L1.999,30.687L1.999,30.687z"/>
</g>
</svg>
