<svg id="Layer_1" data-name="Layer 1" xmlns="http://www.w3.org/2000/svg" viewBox="0 0 144 51.25"><defs><style>.cls-1{fill:#231f20;}</style></defs><title>logo</title><path class="cls-1" d="M70.87,32.21V51.06H68.49V42.48H58.14v8.58H55.76V32.21h2.38v8.15H68.49V32.21Z"/><path class="cls-1" d="M83,51.2a8,8,0,0,1-3.62-.81,9,9,0,0,1-2.79-2.16,10,10,0,0,1-1.8-3.06,10.24,10.24,0,0,1-.63-3.54A9.84,9.84,0,0,1,74.82,38,10,10,0,0,1,76.69,35a8.78,8.78,0,0,1,2.82-2.11A7.91,7.91,0,0,1,83,32.07a7.7,7.7,0,0,1,3.6.84,9.43,9.43,0,0,1,2.78,2.19,10.26,10.26,0,0,1,1.8,3.07,10,10,0,0,1,.63,3.49,10,10,0,0,1-2.53,6.66,8.93,8.93,0,0,1-2.8,2.09A7.94,7.94,0,0,1,83,51.2Zm-6.43-9.57A8.4,8.4,0,0,0,77,44.41a7.74,7.74,0,0,0,1.31,2.38,6.14,6.14,0,0,0,2,1.64,5.65,5.65,0,0,0,2.64.62,5.56,5.56,0,0,0,2.7-.65,7,7,0,0,0,2-1.7A8,8,0,0,0,89,44.32a8.6,8.6,0,0,0,.43-2.69A8.39,8.39,0,0,0,89,38.86a7.35,7.35,0,0,0-1.32-2.36,6.71,6.71,0,0,0-2-1.64A5.7,5.7,0,0,0,83,34.25a5.61,5.61,0,0,0-2.7.64,6.52,6.52,0,0,0-2,1.67A7.53,7.53,0,0,0,77,38.93,8.31,8.31,0,0,0,76.56,41.63Z"/><path class="cls-1" d="M102.88,49.05a5.38,5.38,0,0,0,2.73-.64,5.1,5.1,0,0,0,1.73-1.66,6.73,6.73,0,0,0,.91-2.34,13.29,13.29,0,0,0,.27-2.67V32.21h2.38v9.53a14.68,14.68,0,0,1-.44,3.63,8.58,8.58,0,0,1-1.39,3,6.73,6.73,0,0,1-2.47,2.06,9.36,9.36,0,0,1-7.48,0,6.87,6.87,0,0,1-2.47-2.11,8.7,8.7,0,0,1-1.35-3,15.2,15.2,0,0,1-.41-3.52V32.21h2.38v9.53a13.42,13.42,0,0,0,.28,2.72,6.82,6.82,0,0,0,.93,2.33,4.89,4.89,0,0,0,1.72,1.63A5.21,5.21,0,0,0,102.88,49.05Z"/><path class="cls-1" d="M126.17,36.16a4.49,4.49,0,0,0-.85-.71,7.81,7.81,0,0,0-1.19-.63,9.36,9.36,0,0,0-1.44-.45,7.9,7.9,0,0,0-1.63-.17,5.1,5.1,0,0,0-3.22.82,2.77,2.77,0,0,0-1,2.26,2.44,2.44,0,0,0,.29,1.27,2.39,2.39,0,0,0,.91.87,6.93,6.93,0,0,0,1.55.62c.62.18,1.35.36,2.19.56a21.65,21.65,0,0,1,2.64.73,7.88,7.88,0,0,1,2,1,4.12,4.12,0,0,1,1.27,1.49,4.79,4.79,0,0,1,.43,2.15,4.85,4.85,0,0,1-.53,2.35A4.67,4.67,0,0,1,126.15,50a6.2,6.2,0,0,1-2.15.95,11,11,0,0,1-2.7.31,12.49,12.49,0,0,1-4.12-.68,11.49,11.49,0,0,1-3.53-2l1.14-2a5.85,5.85,0,0,0,1.1.91,9.16,9.16,0,0,0,1.53.81,11.12,11.12,0,0,0,1.85.58,9.47,9.47,0,0,0,2.08.23,5.72,5.72,0,0,0,3.12-.72,2.39,2.39,0,0,0,1.11-2.15,2.45,2.45,0,0,0-.35-1.34,3,3,0,0,0-1-.94,8.29,8.29,0,0,0-1.7-.71c-.68-.2-1.46-.41-2.32-.62a21.9,21.9,0,0,1-2.51-.75,6.75,6.75,0,0,1-1.82-.95,3.58,3.58,0,0,1-1.09-1.36,4.43,4.43,0,0,1-.37-1.91,5.35,5.35,0,0,1,.5-2.39,5,5,0,0,1,1.4-1.75,6.08,6.08,0,0,1,2.14-1.08,9.69,9.69,0,0,1,2.7-.36,9.58,9.58,0,0,1,3.44.59,9.68,9.68,0,0,1,2.73,1.57Z"/><path class="cls-1" d="M144,48.94v2.12H131.25V32.21h12.51v2.12H133.63v6.11h8.81v2h-8.81v6.51Z"/><path class="cls-1" d="M55.87,21A7.18,7.18,0,0,1,66.4,15a5.45,5.45,0,0,1,2.19,2.2l-2.9,2.07a2.48,2.48,0,0,0-.51-.84,2.74,2.74,0,0,0-.71-.53,3.35,3.35,0,0,0-.81-.27,4.63,4.63,0,0,0-.81-.08,2.88,2.88,0,0,0-2.38,1.16,3.92,3.92,0,0,0-.57,1.18,4.85,4.85,0,0,0-.18,1.3,4.52,4.52,0,0,0,.21,1.38,3.56,3.56,0,0,0,.63,1.17,2.93,2.93,0,0,0,1,.81,2.78,2.78,0,0,0,1.33.31,3.7,3.7,0,0,0,.8-.09,3.43,3.43,0,0,0,.79-.29,2.9,2.9,0,0,0,.68-.53,2.3,2.3,0,0,0,.47-.79L68.73,25a4,4,0,0,1-1,1.37,6.24,6.24,0,0,1-1.44,1,7.4,7.4,0,0,1-1.73.62,8.05,8.05,0,0,1-1.8.22A6.4,6.4,0,0,1,60,27.59,7.13,7.13,0,0,1,57.8,26a7.72,7.72,0,0,1-1.43-2.3A7.29,7.29,0,0,1,55.87,21Z"/><path class="cls-1" d="M76.1,24.83a2,2,0,0,0,1.13-.3,2.33,2.33,0,0,0,.76-.77,3.88,3.88,0,0,0,.43-1.1,6.19,6.19,0,0,0,.13-1.31V14.22h3.8v7.13A9.49,9.49,0,0,1,82,24.06a5.78,5.78,0,0,1-1.14,2.17,5.43,5.43,0,0,1-2,1.45,6.74,6.74,0,0,1-2.77.53,6.58,6.58,0,0,1-2.83-.56,5.47,5.47,0,0,1-1.94-1.49A6.33,6.33,0,0,1,70.22,24a9.77,9.77,0,0,1-.34-2.63V14.22h3.79v7.13a6.29,6.29,0,0,0,.13,1.32,4,4,0,0,0,.43,1.11,2.37,2.37,0,0,0,.75.76A2.1,2.1,0,0,0,76.1,24.83Z"/><path class="cls-1" d="M84.52,28.09V14.22h3.8V24.77h6.26v3.32Z"/><path class="cls-1" d="M104.82,17.54h-4V28.09h-3.8V17.54h-4V14.22h11.76Z"/><path class="cls-1" d="M112.23,24.83a2.07,2.07,0,0,0,1.13-.3,2.33,2.33,0,0,0,.76-.77,3.6,3.6,0,0,0,.42-1.1,6.19,6.19,0,0,0,.14-1.31V14.22h3.79v7.13a9.49,9.49,0,0,1-.37,2.71A5.93,5.93,0,0,1,117,26.23a5.52,5.52,0,0,1-2,1.45,6.78,6.78,0,0,1-2.77.53,6.58,6.58,0,0,1-2.83-.56,5.47,5.47,0,0,1-1.94-1.49A6.33,6.33,0,0,1,106.35,24a9.77,9.77,0,0,1-.35-2.63V14.22h3.8v7.13a6.29,6.29,0,0,0,.13,1.32,3.67,3.67,0,0,0,.43,1.11,2.18,2.18,0,0,0,.75.76A2.07,2.07,0,0,0,112.23,24.83Z"/><path class="cls-1" d="M120.65,28.09V14.22H127a4.17,4.17,0,0,1,1.87.42,4.89,4.89,0,0,1,1.47,1.1,5,5,0,0,1,1,1.54,4.52,4.52,0,0,1,.35,1.75,4.93,4.93,0,0,1-.52,2.25A4.57,4.57,0,0,1,129.66,23l2.92,5.1H128.3l-2.43-4.26h-1.42v4.26Zm3.8-7.58h2.39a.84.84,0,0,0,.65-.39,1.74,1.74,0,0,0,.3-1.09,1.56,1.56,0,0,0-.35-1.11,1,1,0,0,0-.7-.38h-2.29Z"/><path class="cls-1" d="M143.63,24.77v3.32h-9.85V14.22h9.67v3.32h-5.87v2h5v3.08h-5v2.19Z"/><path class="cls-1" d="M50.69,51.07H0V13.24L25.34,0,50.69,13.24ZM3.12,48H47.56V15.13L25.34,3.52,3.12,15.13Z"/></svg>