<svg id="Layer_1" data-name="Layer 1" xmlns="http://www.w3.org/2000/svg" viewBox="0 0 108 108"><defs><style>.cls-1{fill:#231f20;}</style></defs><title>third space</title><path class="cls-1" d="M60.84,108H21.15a2.22,2.22,0,0,1-1.2-.36A44.53,44.53,0,0,1,0,70.48V2.16A2.16,2.16,0,0,1,2.16,0H79.82A2.16,2.16,0,0,1,82,2.16V70.48a44.53,44.53,0,0,1-20,37.16A2.19,2.19,0,0,1,60.84,108Zm-39-4.32H60.18a40.21,40.21,0,0,0,17.48-33.2V4.32H4.32V70.48A40.19,40.19,0,0,0,21.81,103.68Z"/><path class="cls-1" d="M83.7,68.07H79.82a2.16,2.16,0,0,1-2.16-2.16V21.63a2.16,2.16,0,0,1,2.16-2.16H83.7a24.3,24.3,0,0,1,0,48.6ZM82,63.75H83.7a20,20,0,1,0,0-40H82Z"/><path class="cls-1" d="M83.7,55.06H79.82a2.16,2.16,0,0,1-2.16-2.16V34.63a2.16,2.16,0,0,1,2.16-2.16H83.7a11.3,11.3,0,0,1,0,22.59ZM82,50.74H83.7a7,7,0,0,0,0-14H82Z"/></svg>