<svg id="Layer_1" data-name="Layer 1" xmlns="http://www.w3.org/2000/svg" viewBox="0 0 108 108"><defs><style>.cls-1{fill:#231f20;}</style></defs><title>programming</title><path class="cls-1" d="M24.58,45.37A11.64,11.64,0,1,1,36.22,33.74,11.65,11.65,0,0,1,24.58,45.37Zm0-18.95a7.32,7.32,0,1,0,7.32,7.32A7.32,7.32,0,0,0,24.58,26.42Z"/><path class="cls-1" d="M54,45.37A11.64,11.64,0,1,1,65.64,33.74,11.65,11.65,0,0,1,54,45.37Zm0-18.95a7.32,7.32,0,1,0,7.32,7.32A7.33,7.33,0,0,0,54,26.42Z"/><path class="cls-1" d="M83.42,45.37A11.64,11.64,0,1,1,95.05,33.74,11.65,11.65,0,0,1,83.42,45.37Zm0-18.95a7.32,7.32,0,1,0,7.31,7.32A7.32,7.32,0,0,0,83.42,26.42Z"/><path class="cls-1" d="M2.16,85.85a2.19,2.19,0,0,1-.83-.16,2.18,2.18,0,0,1-1.33-2V2.16A2.16,2.16,0,0,1,2.16,0H105.84A2.16,2.16,0,0,1,108,2.16V65.31a2.16,2.16,0,0,1-2.16,2.16H21.43L3.69,85.22A2.19,2.19,0,0,1,2.16,85.85ZM4.32,4.32V78.48L19,63.78a2.2,2.2,0,0,1,1.53-.63h83.14V4.32Z"/></svg>