<?xml version="1.0" encoding="utf-8"?>
<!-- Generator: Adobe Illustrator 23.0.4, SVG Export Plug-In . SVG Version: 6.00 Build 0)  -->
<svg version="1.1" id="Layer_1" xmlns="http://www.w3.org/2000/svg" xmlns:xlink="http://www.w3.org/1999/xlink" x="0px" y="0px"
	 viewBox="0 0 108 108" style="enable-background:new 0 0 108 108;" xml:space="preserve">
<style type="text/css">
	.st0{fill:#231F20;}
	.st1{fill:none;stroke:#231F20;stroke-width:4.3184;stroke-linecap:round;stroke-linejoin:round;stroke-miterlimit:10;}
</style>
<g>
	<title>living room</title>
	<g>
		<path class="st0" d="M86.9,98.5c-1.2,0-2.2-1-2.2-2.2V11.6c0-1.2,1-2.2,2.2-2.2s2.2,1,2.2,2.2v84.7C89,97.5,88.1,98.5,86.9,98.5z"
			/>
		<path class="st1" d="M86.9,11.6"/>
		<path class="st1" d="M86.9,2.2"/>
		<path class="st0" d="M21.1,98.5c-1.2,0-2.2-1-2.2-2.2V11.6C19,5.2,24.2,0,30.6,0h65.7c1.2,0,2.2,1,2.2,2.2s-1,2.2-2.2,2.2H30.6
			c-4,0-7.3,3.3-7.3,7.3v84.7C23.3,97.5,22.3,98.5,21.1,98.5z"/>
		<path class="st0" d="M77.4,108H11.7c-1.2,0-2.2-1-2.2-2.2s1-2.2,2.2-2.2h65.7c1.2,0,2.2,1,2.2,2.2S78.6,108,77.4,108z"/>
		<path class="st0" d="M105.8,13.8H86.9c-1.2,0-2.2-1-2.2-2.2C84.7,5.2,89.9,0,96.4,0c6.4,0,11.6,5.2,11.6,11.6
			C108,12.8,107,13.8,105.8,13.8z M89.4,9.5h14c-0.9-3-3.7-5.2-7-5.2C93.1,4.3,90.3,6.5,89.4,9.5z"/>
		<path class="st0" d="M77.4,108c-5.7,0-10.4-4.1-11.4-9.5H4.7c0.9,3,3.7,5.2,7,5.2c1.2,0,2.2,1,2.2,2.2s-1,2.2-2.2,2.2
			C5.2,108,0,102.7,0,96.3c0-1.2,1-2.2,2.2-2.2h65.7c1.2,0,2.2,1,2.2,2.2c0,4,3.3,7.3,7.3,7.3s7.3-3.3,7.3-7.3c0-1.2,1-2.2,2.2-2.2
			s2.2,1,2.2,2.2C89,102.7,83.8,108,77.4,108z"/>
		<path class="st0" d="M77.4,25.9H30.6c-1.2,0-2.2-1-2.2-2.2c0-1.2,1-2.2,2.2-2.2h46.8c1.2,0,2.2,1,2.2,2.2
			C79.6,24.9,78.6,25.9,77.4,25.9z"/>
		<path class="st0" d="M77.4,43H30.6c-1.2,0-2.2-1-2.2-2.2s1-2.2,2.2-2.2h46.8c1.2,0,2.2,1,2.2,2.2S78.6,43,77.4,43z"/>
		<path class="st0" d="M77.4,60.1H30.6c-1.2,0-2.2-1-2.2-2.2c0-1.2,1-2.2,2.2-2.2h46.8c1.2,0,2.2,1,2.2,2.2
			C79.6,59.2,78.6,60.1,77.4,60.1z"/>
		<path class="st0" d="M77.4,77.2H30.6c-1.2,0-2.2-1-2.2-2.2s1-2.2,2.2-2.2h46.8c1.2,0,2.2,1,2.2,2.2S78.6,77.2,77.4,77.2z"/>
	</g>
</g>
</svg>
