<?xml version="1.0" encoding="utf-8"?>
<!-- Generator: Adobe Illustrator 23.0.4, SVG Export Plug-In . SVG Version: 6.00 Build 0)  -->
<svg version="1.1" id="Layer_1" xmlns="http://www.w3.org/2000/svg" xmlns:xlink="http://www.w3.org/1999/xlink" x="0px" y="0px"
	 viewBox="0 0 108 108" style="enable-background:new 0 0 108 108;" xml:space="preserve">
<style type="text/css">
	.st0{fill:#231F20;}
</style>
<title>programming</title>
<g>
	<path class="st0" d="M24.6,56.4c-6.4,0-11.6-5.2-11.6-11.6s5.2-11.6,11.6-11.6s11.6,5.2,11.6,11.6c0,0,0,0,0,0
		C36.2,51.2,31,56.4,24.6,56.4z M24.6,37.5c-4,0-7.3,3.3-7.3,7.3s3.3,7.3,7.3,7.3s7.3-3.3,7.3-7.3l0,0
		C31.9,40.8,28.6,37.5,24.6,37.5z"/>
	<path class="st0" d="M54,56.4c-6.4,0-11.6-5.2-11.6-11.6c0-6.4,5.2-11.6,11.6-11.6c6.4,0,11.6,5.2,11.6,11.6c0,0,0,0,0,0
		C65.6,51.2,60.4,56.4,54,56.4z M54,37.5c-4,0-7.3,3.3-7.3,7.3s3.3,7.3,7.3,7.3s7.3-3.3,7.3-7.3l0,0C61.3,40.8,58,37.5,54,37.5z"/>
	<path class="st0" d="M83.4,56.4c-6.4,0-11.6-5.2-11.6-11.6S77,33.2,83.4,33.2c6.4,0,11.6,5.2,11.6,11.6c0,0,0,0,0,0
		C95,51.2,89.8,56.4,83.4,56.4z M83.4,37.5c-4,0-7.3,3.3-7.3,7.3s3.3,7.3,7.3,7.3c4,0,7.3-3.3,7.3-7.3c0,0,0,0,0,0
		C90.7,40.8,87.5,37.5,83.4,37.5z"/>
	<path class="st0" d="M2.2,96.9c-0.3,0-0.6-0.1-0.8-0.2c-0.8-0.3-1.3-1.1-1.3-2V13.2c0-1.2,1-2.2,2.2-2.2h103.7c1.2,0,2.2,1,2.2,2.2
		c0,0,0,0,0,0v63.1c0,1.2-1,2.2-2.2,2.2h0H21.4L3.7,96.3C3.3,96.7,2.7,96.9,2.2,96.9z M4.3,15.4v74.2L19,74.9c0.4-0.4,1-0.6,1.5-0.6
		h83.1V15.4H4.3z"/>
</g>
</svg>
