<svg id="Layer_1" data-name="Layer 1" xmlns="http://www.w3.org/2000/svg" viewBox="0 0 108 108"><defs><style>.cls-1{fill:#231f20;}</style></defs><title>indoor park</title><path class="cls-1" d="M61.56,108H46.44a2.16,2.16,0,0,1-2.16-2.16V77.43a2.16,2.16,0,0,1,3.66-1.54A13.44,13.44,0,0,0,61,79.24a2.15,2.15,0,0,1,2.73,2.08v24.52A2.16,2.16,0,0,1,61.56,108Zm-13-4.32H59.4V83.94a17.81,17.81,0,0,1-10.8-2.2Z"/><path class="cls-1" d="M57.37,84.06A17.8,17.8,0,0,1,44.93,79,17.47,17.47,0,0,1,43,76.78a23.72,23.72,0,0,1-10.7,2.6A24,24,0,0,1,8.36,55.44a22.35,22.35,0,0,1,.28-3.52A18,18,0,0,1,0,36.5,18.23,18.23,0,0,1,18.2,18.3a16.38,16.38,0,0,1,3.13.32A13.67,13.67,0,0,1,34.24,9.49a13.4,13.4,0,0,1,6,1.41,19.8,19.8,0,0,1,37.48,9v.49a20.7,20.7,0,0,1,9-2A21.23,21.23,0,0,1,101.34,55a18.22,18.22,0,0,1,.6,4.56A19.87,19.87,0,0,1,82.09,79.38a19.46,19.46,0,0,1-10.15-2.87,18,18,0,0,1-9.8,6.89A17.54,17.54,0,0,1,57.37,84.06ZM43.69,71.76a1.93,1.93,0,0,1,.53.07,2.14,2.14,0,0,1,1.34,1,14.18,14.18,0,0,0,2.38,3A13.44,13.44,0,0,0,61,79.24a13.79,13.79,0,0,0,8.41-6.8,2.13,2.13,0,0,1,1.46-1.1,2.16,2.16,0,0,1,1.77.41,15.36,15.36,0,0,0,9.46,3.31A15.55,15.55,0,0,0,97.62,59.53a15.09,15.09,0,0,0-.79-4.62,2.17,2.17,0,0,1,.68-2.31A16.91,16.91,0,0,0,76.15,26.39a2.16,2.16,0,0,1-3.42-2.28,15.27,15.27,0,0,0,.67-4.26,15.49,15.49,0,0,0-30.13-5.08,2.15,2.15,0,0,1-3.35,1A9.32,9.32,0,0,0,25,21.61a2.16,2.16,0,0,1-2.77,1.69,13.66,13.66,0,0,0-4-.68A13.84,13.84,0,0,0,12,48.86a2.16,2.16,0,0,1,1.14,2.39A19.51,19.51,0,0,0,42.55,72.08,2.21,2.21,0,0,1,43.69,71.76Z"/><path class="cls-1" d="M61.56,95.82A2.16,2.16,0,0,1,60,92.13l6.4-6.4a2.16,2.16,0,1,1,3.06,3l-6.41,6.41A2.15,2.15,0,0,1,61.56,95.82Z"/></svg>