<svg xmlns="http://www.w3.org/2000/svg" viewBox="0 0 72 72"><defs><style>.cls-1{fill:#231f20;}</style></defs><title>opening</title><g id="Layer_1" data-name="Layer 1"><path class="cls-1" d="M22.64,65.25c27.17,0,42-22.51,42-42,0-.64,0-1.27,0-1.91A30.07,30.07,0,0,0,72,13.67,29.84,29.84,0,0,1,63.52,16,14.84,14.84,0,0,0,70,7.82a29.54,29.54,0,0,1-9.38,3.58A14.78,14.78,0,0,0,35.46,24.88,42,42,0,0,1,5,9.44,14.78,14.78,0,0,0,9.58,29.16a14.58,14.58,0,0,1-6.7-1.85v.19A14.78,14.78,0,0,0,14.73,42a14.74,14.74,0,0,1-6.67.25,14.79,14.79,0,0,0,13.8,10.26A29.68,29.68,0,0,1,0,58.62a41.89,41.89,0,0,0,22.64,6.62"/></g></svg>